<svg width="500" height="421" viewBox="0 0 500 421" fill="none" xmlns="http://www.w3.org/2000/svg">
<path d="M424.57 173.77C426.1 132.35 411.22 90.43 378.42 70.48C362.23 60.63 343.3 54.86 324.36 55.71C304.04 56.62 284.91 64.89 265.75 71.71C246.59 78.53 225.84 83.98 206.09 79.14C191.8 75.64 179.23 66.99 165.09 63.05C109.38 47.54 60.8702 110.75 88.1302 161C94.8202 173.32 105.13 183.2 113.8 194.23C122.47 205.26 129.74 218.58 128.57 232.55C127.57 244.12 121.01 254.42 118.28 265.7C113.06 287.31 123.42 311.08 141.33 324.25C159.24 337.42 183.4 340.49 205 335.07C226.6 329.65 245.6 316.39 260.57 299.97C268.57 291.17 276.41 280.89 287.92 277.9C298.97 275.04 310.36 279.7 321.57 281.84C331.934 283.757 342.58 283.54 352.857 281.201C363.134 278.863 372.826 274.452 381.34 268.24C408.39 248.23 423.19 211.2 424.57 173.77Z" fill="#2FC2B1"/>
<path opacity="0.7" d="M424.57 173.77C426.1 132.35 411.22 90.43 378.42 70.48C362.23 60.63 343.3 54.86 324.36 55.71C304.04 56.62 284.91 64.89 265.75 71.71C246.59 78.53 225.84 83.98 206.09 79.14C191.8 75.64 179.23 66.99 165.09 63.05C109.38 47.54 60.8702 110.75 88.1302 161C94.8202 173.32 105.13 183.2 113.8 194.23C122.47 205.26 129.74 218.58 128.57 232.55C127.57 244.12 121.01 254.42 118.28 265.7C113.06 287.31 123.42 311.08 141.33 324.25C159.24 337.42 183.4 340.49 205 335.07C226.6 329.65 245.6 316.39 260.57 299.97C268.57 291.17 276.41 280.89 287.92 277.9C298.97 275.04 310.36 279.7 321.57 281.84C331.934 283.757 342.58 283.54 352.857 281.201C363.134 278.863 372.826 274.452 381.34 268.24C408.39 248.23 423.19 211.2 424.57 173.77Z" fill="white"/>
<path d="M246.39 403.2C321.065 403.2 381.6 391.094 381.6 376.16C381.6 361.226 321.065 349.12 246.39 349.12C171.716 349.12 111.18 361.226 111.18 376.16C111.18 391.094 171.716 403.2 246.39 403.2Z" fill="#2FC2B1"/>
<path opacity="0.5" d="M246.39 403.2C321.065 403.2 381.6 391.094 381.6 376.16C381.6 361.226 321.065 349.12 246.39 349.12C171.716 349.12 111.18 361.226 111.18 376.16C111.18 391.094 171.716 403.2 246.39 403.2Z" fill="white"/>
<path d="M389.93 16.4497H292.44C289.11 16.4497 286.41 19.1494 286.41 22.4797V129.95C286.41 133.28 289.11 135.98 292.44 135.98H389.93C393.26 135.98 395.96 133.28 395.96 129.95V22.4797C395.96 19.1494 393.26 16.4497 389.93 16.4497Z" fill="white" stroke="#263238" stroke-linecap="round" stroke-linejoin="round"/>
<path d="M292.44 16.4498H389.92C391.512 16.4498 393.038 17.0819 394.163 18.2071C395.288 19.3324 395.92 20.8585 395.92 22.4498V28.7098H286.41V22.4798C286.406 21.6868 286.56 20.9009 286.861 20.1675C287.163 19.4341 287.607 18.7678 288.168 18.2071C288.728 17.6463 289.395 17.2023 290.128 16.9007C290.861 16.5991 291.647 16.4458 292.44 16.4498Z" fill="#263238" stroke="#263238" stroke-linecap="round" stroke-linejoin="round"/>
<path d="M292.38 80.27H336.46" stroke="#263238" stroke-linecap="round" stroke-linejoin="round"/>
<path d="M292.38 85.96H336.46" stroke="#263238" stroke-linecap="round" stroke-linejoin="round"/>
<path d="M292.38 91.6499H336.46" stroke="#263238" stroke-linecap="round" stroke-linejoin="round"/>
<path d="M292.38 97.3398H336.46" stroke="#263238" stroke-linecap="round" stroke-linejoin="round"/>
<path d="M292.38 103.03H336.46" stroke="#263238" stroke-linecap="round" stroke-linejoin="round"/>
<path d="M292.38 108.73H336.46" stroke="#263238" stroke-linecap="round" stroke-linejoin="round"/>
<path d="M292.38 114.42H336.46" stroke="#263238" stroke-linecap="round" stroke-linejoin="round"/>
<path d="M292.38 120.11H336.46" stroke="#263238" stroke-linecap="round" stroke-linejoin="round"/>
<path d="M292.38 125.8H336.46" stroke="#263238" stroke-linecap="round" stroke-linejoin="round"/>
<path d="M344.21 80.27H388.29" stroke="#263238" stroke-linecap="round" stroke-linejoin="round"/>
<path d="M344.21 85.96H388.29" stroke="#263238" stroke-linecap="round" stroke-linejoin="round"/>
<path d="M344.21 91.6499H388.29" stroke="#263238" stroke-linecap="round" stroke-linejoin="round"/>
<path d="M344.21 97.3398H388.29" stroke="#263238" stroke-linecap="round" stroke-linejoin="round"/>
<path d="M344.21 103.03H388.29" stroke="#263238" stroke-linecap="round" stroke-linejoin="round"/>
<path d="M344.21 108.73H388.29" stroke="#263238" stroke-linecap="round" stroke-linejoin="round"/>
<path d="M344.21 114.42H388.29" stroke="#263238" stroke-linecap="round" stroke-linejoin="round"/>
<path d="M344.21 120.11H388.29" stroke="#263238" stroke-linecap="round" stroke-linejoin="round"/>
<path d="M344.21 125.8H388.29" stroke="#263238" stroke-linecap="round" stroke-linejoin="round"/>
<path d="M321.86 44.2398C322.078 43.5641 322.192 42.8596 322.2 42.1498C322.2 39.5598 319.57 39.4098 316.99 39.4098H316.34V38.7998H327.6V39.4098C324.67 39.4098 323.6 41.2798 322.69 44.0498L316.69 61.9598C316.24 63.2898 315.86 64.2798 314.45 64.2798H314.33L309.05 47.1698L304.14 61.9998C303.68 63.3298 303.3 64.3198 301.89 64.3198H301.78L294.1 39.4098H291.4V38.7998H301.28V39.4098H298.47L304.17 59.0298H304.4L308.7 45.9998L306.7 39.4598H304V38.7998H313.89V39.4098H311.08L316.78 59.0298H317L321.86 44.2398Z" fill="#2FC2B1"/>
<path d="M388.6 33.1299H343.24V74.1299H388.6V33.1299Z" fill="#2FC2B1" stroke="#263238" stroke-width="2" stroke-linecap="round" stroke-linejoin="round"/>
<path d="M388.6 50.27C387.079 50.3567 385.567 50.5674 384.08 50.9C377.19 52.4 375.39 62.29 367.6 62.29C360.7 62.29 360.11 53 350.22 51.8C347.814 51.421 345.35 51.8575 343.22 53.04V74.13H388.6V50.27Z" fill="#263238" stroke="#263238" stroke-linecap="round" stroke-linejoin="round"/>
<path d="M358.31 42.5099C358.312 43.5195 358.015 44.5069 357.455 45.3471C356.895 46.1873 356.099 46.8425 355.167 47.2298C354.234 47.617 353.208 47.7189 352.218 47.5224C351.228 47.326 350.318 46.84 349.604 46.1262C348.89 45.4123 348.404 44.5027 348.208 43.5124C348.011 42.5222 348.113 41.4959 348.5 40.5636C348.888 39.6313 349.543 38.8349 350.383 38.2753C351.223 37.7156 352.211 37.418 353.22 37.4199C354.57 37.4199 355.865 37.9562 356.82 38.9108C357.774 39.8653 358.31 41.16 358.31 42.5099Z" fill="white" stroke="#263238" stroke-linecap="round" stroke-linejoin="round"/>
<path d="M390.67 20.0396H289.7V23.9296H390.67V20.0396Z" fill="white" stroke="#263238" stroke-linecap="round" stroke-linejoin="round"/>
<path d="M384.37 159.83H340.66C338.941 159.83 337.293 160.512 336.078 161.728C334.863 162.943 334.18 164.591 334.18 166.31V189.69C334.18 191.408 334.863 193.056 336.078 194.272C337.293 195.487 338.941 196.17 340.66 196.17H342C340.64 199.17 338 203.77 333.83 206.5C333.83 206.5 342.7 205.88 351.94 196.17H384.35C386.069 196.17 387.717 195.487 388.932 194.272C390.147 193.056 390.83 191.408 390.83 189.69V166.31C390.83 164.594 390.15 162.949 388.939 161.735C387.728 160.52 386.085 159.835 384.37 159.83Z" fill="#263238" stroke="#263238" stroke-linecap="round" stroke-linejoin="round"/>
<path d="M355 177.17C355.002 176.508 354.808 175.861 354.442 175.31C354.075 174.76 353.554 174.33 352.943 174.076C352.332 173.822 351.66 173.755 351.011 173.884C350.362 174.012 349.766 174.33 349.299 174.798C348.831 175.266 348.513 175.862 348.384 176.511C348.255 177.159 348.322 177.832 348.576 178.443C348.831 179.053 349.26 179.575 349.811 179.941C350.362 180.307 351.009 180.502 351.67 180.5C352.553 180.497 353.398 180.145 354.022 179.522C354.646 178.898 354.998 178.052 355 177.17Z" fill="#2FC2B1" stroke="#263238" stroke-linecap="round" stroke-linejoin="round"/>
<path d="M366.33 177.17C366.33 176.511 366.135 175.867 365.769 175.32C365.403 174.772 364.883 174.345 364.275 174.093C363.666 173.841 362.997 173.775 362.351 173.904C361.705 174.032 361.111 174.349 360.646 174.815C360.18 175.281 359.863 175.874 359.734 176.52C359.606 177.166 359.672 177.836 359.924 178.444C360.176 179.053 360.603 179.573 361.15 179.939C361.698 180.305 362.342 180.5 363 180.5C363.883 180.497 364.728 180.146 365.352 179.522C365.976 178.898 366.328 178.052 366.33 177.17Z" fill="#2FC2B1" stroke="#263238" stroke-linecap="round" stroke-linejoin="round"/>
<path d="M377.67 177.17C377.672 176.509 377.478 175.862 377.112 175.312C376.746 174.761 376.225 174.331 375.615 174.077C375.005 173.823 374.333 173.755 373.685 173.883C373.036 174.011 372.44 174.328 371.972 174.795C371.504 175.261 371.185 175.856 371.055 176.505C370.925 177.153 370.991 177.825 371.244 178.436C371.496 179.047 371.924 179.569 372.474 179.936C373.023 180.304 373.669 180.5 374.33 180.5C375.213 180.497 376.06 180.146 376.686 179.522C377.311 178.899 377.665 178.053 377.67 177.17Z" fill="#2FC2B1" stroke="#263238" stroke-linecap="round" stroke-linejoin="round"/>
<path d="M144 30.6299H216C217.714 30.6299 219.357 31.3105 220.568 32.522C221.78 33.7335 222.46 35.3766 222.46 37.0899V86.9999H137.57V37.0899C137.57 35.3818 138.247 33.7432 139.452 32.5325C140.657 31.3219 142.292 30.6378 144 30.6299Z" fill="#2FC2B1" stroke="#263238" stroke-linecap="round" stroke-linejoin="round"/>
<path d="M222.42 78.9497H137.57V86.9697H222.42V78.9497Z" fill="#263238" stroke="#263238" stroke-linecap="round" stroke-linejoin="round"/>
<path d="M218.54 81.6899H141.46V84.2299H218.54V81.6899Z" fill="white" stroke="#263238" stroke-linecap="round" stroke-linejoin="round"/>
<path d="M180 67.9297C186.473 67.9297 191.72 62.6825 191.72 56.2097C191.72 49.737 186.473 44.4897 180 44.4897C173.527 44.4897 168.28 49.737 168.28 56.2097C168.28 62.6825 173.527 67.9297 180 67.9297Z" fill="#263238" stroke="#263238" stroke-linecap="round" stroke-linejoin="round"/>
<path d="M174.71 48.9199L187.36 56.2199L174.71 63.5199V48.9199Z" fill="white" stroke="#263238" stroke-linecap="round" stroke-linejoin="round"/>
<path d="M185.72 107.5H105.19C103.633 107.5 102.37 108.763 102.37 110.32V141.01C102.37 142.567 103.633 143.83 105.19 143.83H185.72C187.278 143.83 188.54 142.567 188.54 141.01V110.32C188.54 108.763 187.278 107.5 185.72 107.5Z" fill="#263238" stroke="#263238" stroke-linecap="round" stroke-linejoin="round"/>
<path d="M112.63 112.45L113.05 113.15C111.15 114.21 109.38 116.07 109.38 118.25C109.356 118.624 109.406 119 109.529 119.354C109.652 119.709 109.844 120.036 110.095 120.315C110.345 120.594 110.649 120.821 110.988 120.982C111.327 121.142 111.695 121.233 112.07 121.25C112.35 121.25 112.54 121.11 112.54 120.83C112.54 120.55 112.4 120.46 112.12 120.41C111.742 120.307 111.414 120.074 111.192 119.752C110.97 119.43 110.87 119.039 110.91 118.65C110.917 118.339 110.988 118.033 111.117 117.751C111.246 117.469 111.431 117.215 111.661 117.007C111.892 116.798 112.162 116.638 112.455 116.538C112.749 116.437 113.06 116.397 113.37 116.42C113.707 116.421 114.04 116.49 114.35 116.622C114.66 116.754 114.94 116.947 115.174 117.189C115.408 117.432 115.591 117.719 115.713 118.033C115.834 118.347 115.891 118.683 115.88 119.02C115.875 119.443 115.785 119.861 115.615 120.248C115.445 120.636 115.199 120.985 114.891 121.276C114.583 121.566 114.219 121.791 113.822 121.938C113.425 122.085 113.003 122.15 112.58 122.13C112.054 122.164 111.528 122.087 111.034 121.904C110.54 121.722 110.089 121.437 109.712 121.07C109.335 120.702 109.04 120.259 108.844 119.77C108.649 119.281 108.559 118.756 108.58 118.23C108.55 115.7 110.5 113.66 112.63 112.45ZM121.22 112.45L121.64 113.15C119.73 114.21 117.97 116.07 117.97 118.25C117.944 118.624 117.994 119.001 118.116 119.356C118.238 119.711 118.431 120.038 118.681 120.318C118.932 120.598 119.236 120.824 119.576 120.984C119.916 121.144 120.285 121.235 120.66 121.25C120.94 121.25 121.13 121.11 121.13 120.83C121.13 120.55 120.99 120.46 120.71 120.41C120.332 120.307 120.003 120.074 119.782 119.752C119.56 119.43 119.46 119.039 119.5 118.65C119.506 118.339 119.575 118.032 119.704 117.749C119.833 117.466 120.018 117.212 120.248 117.003C120.479 116.794 120.749 116.635 121.044 116.535C121.338 116.434 121.65 116.395 121.96 116.42C122.297 116.421 122.63 116.49 122.94 116.622C123.25 116.754 123.53 116.947 123.764 117.189C123.998 117.432 124.181 117.719 124.303 118.033C124.424 118.347 124.481 118.683 124.47 119.02C124.464 119.443 124.373 119.86 124.202 120.247C124.032 120.634 123.785 120.982 123.478 121.273C123.17 121.563 122.807 121.788 122.411 121.935C122.014 122.082 121.592 122.148 121.17 122.13C120.645 122.162 120.119 122.084 119.625 121.901C119.132 121.718 118.682 121.434 118.306 121.066C117.929 120.699 117.633 120.257 117.438 119.768C117.242 119.28 117.151 118.756 117.17 118.23C117.13 115.7 119.08 113.66 121.22 112.45Z" fill="#2FC2B1"/>
<path d="M129.44 119.85H178.48" stroke="white" stroke-linecap="round" stroke-linejoin="round"/>
<path d="M129.44 124.06H178.48" stroke="white" stroke-linecap="round" stroke-linejoin="round"/>
<path d="M129.44 128.27H178.48" stroke="white" stroke-linecap="round" stroke-linejoin="round"/>
<path d="M129.44 132.49H178.48" stroke="white" stroke-linecap="round" stroke-linejoin="round"/>
<path d="M169.803 200.159C179.925 198.507 186.792 188.962 185.14 178.84C183.487 168.718 173.943 161.852 163.821 163.504C153.699 165.156 146.832 174.701 148.485 184.823C150.137 194.945 159.681 201.811 169.803 200.159Z" fill="#263238" stroke="#263238" stroke-linecap="round" stroke-linejoin="round"/>
<path d="M178.591 192.193C184.301 185.691 183.659 175.79 177.157 170.079C170.654 164.368 160.753 165.01 155.042 171.513C149.332 178.016 149.974 187.917 156.476 193.627C162.979 199.338 172.88 198.696 178.591 192.193Z" fill="white" stroke="#263238" stroke-linecap="round" stroke-linejoin="round"/>
<path d="M166.82 170.5V181.83H174.48" stroke="#263238" stroke-width="2" stroke-linecap="round" stroke-linejoin="round"/>
<path d="M283 181.87C283 181.87 293.65 204.6 293.65 205.8C293.65 207 284.2 212.14 282.4 213.22C281.004 214.015 279.565 214.733 278.09 215.37L279.17 225.9C279.17 225.9 295.44 222.19 302.26 218.48C309.08 214.77 308.84 210.58 307.26 204.36C305.68 198.14 295.17 174.1 295.17 174.1L283 181.87Z" fill="white"/>
<mask id="mask0_205_15267" style="mask-type:luminance" maskUnits="userSpaceOnUse" x="278" y="174" width="31" height="52">
<path d="M283 181.87C283 181.87 293.65 204.6 293.65 205.8C293.65 207 284.2 212.14 282.4 213.22C281.004 214.015 279.565 214.733 278.09 215.37L279.17 225.9C279.17 225.9 295.44 222.19 302.26 218.48C309.08 214.77 308.84 210.58 307.26 204.36C305.68 198.14 295.17 174.1 295.17 174.1L283 181.87Z" fill="white"/>
</mask>
<g mask="url(#mask0_205_15267)">
<g style="mix-blend-mode:multiply" opacity="0.5">
<path d="M302.23 218.48C309.05 214.77 308.81 210.58 307.23 204.36C305.65 198.14 295.14 174.1 295.14 174.1L293.44 175.18L292.9 176.18C292.9 176.18 302.71 200.26 303.3 208.28C303.7 213.67 292.85 220.39 285.68 224.23C291 222.82 298.24 220.65 302.23 218.48Z" fill="#2FC2B1"/>
</g>
</g>
<path d="M283 181.87C283 181.87 293.65 204.6 293.65 205.8C293.65 207 284.2 212.14 282.4 213.22C281.004 214.015 279.565 214.733 278.09 215.37L279.17 225.9C279.17 225.9 295.44 222.19 302.26 218.48C309.08 214.77 308.84 210.58 307.26 204.36C305.68 198.14 295.17 174.1 295.17 174.1L283 181.87Z" stroke="#263238" stroke-linecap="round" stroke-linejoin="round"/>
<path d="M206.16 176.85C206.16 176.85 198.39 205.32 198.16 210.35C197.93 215.38 213.59 225.3 214.16 225.9C214.73 226.5 213.27 208.6 213.27 208.6L218.58 182.6L206.16 176.85Z" fill="white"/>
<mask id="mask1_205_15267" style="mask-type:luminance" maskUnits="userSpaceOnUse" x="198" y="176" width="21" height="50">
<path d="M206.16 176.85C206.16 176.85 198.39 205.32 198.16 210.35C197.93 215.38 213.59 225.3 214.16 225.9C214.73 226.5 213.27 208.6 213.27 208.6L218.58 182.6L206.16 176.85Z" fill="white"/>
</mask>
<g mask="url(#mask1_205_15267)">
<g style="mix-blend-mode:multiply" opacity="0.5">
<path d="M209.72 179.18L209.55 178.41L206.16 176.85C206.16 176.85 198.39 205.32 198.16 210.35C197.93 215.38 213.59 225.3 214.16 225.9C214.39 226.14 214.3 223.46 214.11 220.15C209.45 216.2 202.76 210.64 201.98 208.3" fill="#2FC2B1"/>
</g>
</g>
<path d="M206.16 176.85C206.16 176.85 198.39 205.32 198.16 210.35C197.93 215.38 213.59 225.3 214.16 225.9C214.73 226.5 213.27 208.6 213.27 208.6L218.58 182.6L206.16 176.85Z" stroke="#263238" stroke-linecap="round" stroke-linejoin="round"/>
<path d="M242.65 148.25C242.65 148.25 239.65 150.41 233.8 150.65C227.95 150.89 227.67 146.65 220.4 146.65C211.59 146.65 200.54 174.52 200.54 174.52C200.54 174.52 206.04 179.91 211.43 182.18C214.412 183.486 217.547 184.41 220.76 184.93L221.6 203.24H280.94L281.65 184.93L300.2 172.9C300.2 172.9 291.1 156.63 286.68 150.53C282.26 144.43 274.83 146.7 272.56 148.25C270.29 149.8 263.56 150.17 261.08 149.81C257.845 149.094 254.647 148.216 251.5 147.18C251.5 147.18 247.68 144 242.65 148.25Z" fill="#2FC2B1" stroke="#263238" stroke-linecap="round" stroke-linejoin="round"/>
<path d="M221.36 154.71L221.12 185.1" stroke="#263238" stroke-width="0.5" stroke-linecap="round" stroke-linejoin="round"/>
<path d="M223.51 157.47C223.51 157.47 224.35 172.3 227.51 180.56" stroke="#263238" stroke-width="0.5" stroke-linecap="round" stroke-linejoin="round"/>
<path d="M228.06 181.75C228.743 183.766 229.582 185.725 230.57 187.61" stroke="#263238" stroke-width="0.5" stroke-linecap="round" stroke-linejoin="round"/>
<path d="M225.42 155.79C226.555 161.182 228.158 166.466 230.21 171.58" stroke="#263238" stroke-width="0.5" stroke-linecap="round" stroke-linejoin="round"/>
<path d="M277 158.42C277 158.42 274.13 170.15 271.61 175.42" stroke="#263238" stroke-width="0.5" stroke-linecap="round" stroke-linejoin="round"/>
<path d="M281.65 184.98L281.53 161.29" stroke="#263238" stroke-width="0.5" stroke-linecap="round" stroke-linejoin="round"/>
<path d="M280.34 161.77C280.34 161.77 278.18 176.77 272.92 184.62" stroke="#263238" stroke-width="0.5" stroke-linecap="round" stroke-linejoin="round"/>
<path d="M277.71 181.63C277.71 181.63 275.31 186.18 273.64 188.57" stroke="#263238" stroke-width="0.5" stroke-linecap="round" stroke-linejoin="round"/>
<path d="M239.3 150.05C239.3 150.05 240.98 160.34 243.37 165.6C245.76 170.86 249.95 171.94 253.54 170.39C257.13 168.84 259.76 161.17 259.54 151.39" stroke="#263238" stroke-width="0.5" stroke-linecap="round" stroke-linejoin="round"/>
<path d="M230.81 128.51C230.81 128.51 228.53 124.57 226.74 126.6C224.95 128.63 228.18 133.3 229.97 134.85C231.76 136.4 233.08 135.45 232.97 133.78C232.86 132.11 230.81 128.51 230.81 128.51Z" fill="#2FC2B1" stroke="#263238" stroke-linecap="round" stroke-linejoin="round"/>
<path opacity="0.5" d="M230.81 128.51C230.81 128.51 228.53 124.57 226.74 126.6C224.95 128.63 228.18 133.3 229.97 134.85C231.76 136.4 233.08 135.45 232.97 133.78C232.86 132.11 230.81 128.51 230.81 128.51Z" fill="white"/>
<path d="M230.81 128.51C230.81 128.51 228.53 124.57 226.74 126.6C224.95 128.63 228.18 133.3 229.97 134.85C231.76 136.4 233.08 135.45 232.97 133.78C232.86 132.11 230.81 128.51 230.81 128.51Z" stroke="#263238" stroke-linecap="round" stroke-linejoin="round"/>
<path d="M267 128.51C267 128.51 269.27 124.57 271.07 126.6C272.87 128.63 269.63 133.3 267.84 134.85C266.05 136.4 264.72 135.45 264.84 133.78C264.96 132.11 267 128.51 267 128.51Z" fill="#2FC2B1" stroke="#263238" stroke-linecap="round" stroke-linejoin="round"/>
<path opacity="0.5" d="M267 128.51C267 128.51 269.27 124.57 271.07 126.6C272.87 128.63 269.63 133.3 267.84 134.85C266.05 136.4 264.72 135.45 264.84 133.78C264.96 132.11 267 128.51 267 128.51Z" fill="white"/>
<path d="M267 128.51C267 128.51 269.27 124.57 271.07 126.6C272.87 128.63 269.63 133.3 267.84 134.85C266.05 136.4 264.72 135.45 264.84 133.78C264.96 132.11 267 128.51 267 128.51Z" stroke="#263238" stroke-linecap="round" stroke-linejoin="round"/>
<path d="M241.57 147.42C242.699 152.527 244.139 157.559 245.88 162.49C248.04 167.87 252.1 167.87 253.78 164.4C255.46 160.93 256.53 148 256.53 148C256.53 148 245.28 149.57 241.57 147.42Z" fill="white" stroke="#263238" stroke-linecap="round" stroke-linejoin="round"/>
<path d="M231.05 129.83C231.05 129.83 234.16 140.83 240.05 147.3C245.94 153.77 248.05 155.3 251.18 154.83C254.31 154.36 257.64 150.29 262.3 141.83C266.96 133.37 267.3 126.88 267.69 126.28C268.08 125.68 266.69 113.72 260.03 108.57C253.37 103.42 245.91 101.16 239.45 106.78C232.99 112.4 228.89 121.57 231.05 129.83Z" fill="white"/>
<mask id="mask2_205_15267" style="mask-type:luminance" maskUnits="userSpaceOnUse" x="230" y="103" width="38" height="52">
<path d="M231.05 129.83C231.05 129.83 234.16 140.83 240.05 147.3C245.94 153.77 248.05 155.3 251.18 154.83C254.31 154.36 257.64 150.29 262.3 141.83C266.96 133.37 267.3 126.88 267.69 126.28C268.08 125.68 266.69 113.72 260.03 108.57C253.37 103.42 245.91 101.16 239.45 106.78C232.99 112.4 228.89 121.57 231.05 129.83Z" fill="white"/>
</mask>
<g mask="url(#mask2_205_15267)">
<g style="mix-blend-mode:multiply" opacity="0.5">
<path d="M260 108.53C253.3 103.39 245.88 101.12 239.42 106.74C232.96 112.36 228.89 121.57 231.05 129.83C231.05 129.83 231.64 131.95 232.81 134.83C232.807 134.461 232.857 134.094 232.96 133.74C234.39 129.21 238.61 120.44 252.81 124.46C264.09 127.64 262.71 137.56 261.66 142.85L262.27 141.75C266.94 133.26 267.27 126.8 267.66 126.2C268.05 125.6 266.7 113.68 260 108.53Z" fill="#2FC2B1"/>
</g>
</g>
<path d="M231.05 129.83C231.05 129.83 234.16 140.83 240.05 147.3C245.94 153.77 248.05 155.3 251.18 154.83C254.31 154.36 257.64 150.29 262.3 141.83C266.96 133.37 267.3 126.88 267.69 126.28C268.08 125.68 266.69 113.72 260.03 108.57C253.37 103.42 245.91 101.16 239.45 106.78C232.99 112.4 228.89 121.57 231.05 129.83Z" stroke="#263238" stroke-linecap="round" stroke-linejoin="round"/>
<path d="M251.15 135.57C250.779 137.906 250.579 140.266 250.55 142.63C250.67 145.02 251.39 145.74 250.31 145.98C249.23 146.22 248.04 144.54 248.04 144.54" stroke="#263238" stroke-linecap="round" stroke-linejoin="round"/>
<path d="M239.18 137.49C239.873 137.991 240.701 138.27 241.556 138.292C242.411 138.313 243.252 138.076 243.97 137.61" stroke="#263238" stroke-linecap="round" stroke-linejoin="round"/>
<path d="M254.38 137.49C255.072 137.99 255.898 138.269 256.751 138.29C257.604 138.312 258.444 138.075 259.16 137.61" stroke="#263238" stroke-linecap="round" stroke-linejoin="round"/>
<path d="M246.82 133.46C246.82 133.46 244.54 127.83 237.01 130.46" stroke="#263238" stroke-linecap="round" stroke-linejoin="round"/>
<path d="M253.09 132.77C253.09 132.77 255 127.26 261.82 130.49" stroke="#263238" stroke-linecap="round" stroke-linejoin="round"/>
<path d="M248.27 137.9C248.27 140.98 244.74 143.47 240.38 143.47C236.02 143.47 232.48 140.98 232.48 137.9C232.48 134.82 235.78 133.54 240.14 133.54C244.5 133.54 248.27 134.83 248.27 137.9Z" stroke="#263238" stroke-linecap="round" stroke-linejoin="round"/>
<path d="M266.46 137.9C266.46 140.98 262.92 143.47 258.56 143.47C254.2 143.47 250.67 140.98 250.67 137.9C250.67 134.82 253.96 133.54 258.32 133.54C262.68 133.54 266.46 134.83 266.46 137.9Z" stroke="#263238" stroke-linecap="round" stroke-linejoin="round"/>
<path d="M165.63 233.83L165.14 355.06C165.14 355.442 165.291 355.808 165.561 356.078C165.831 356.348 166.198 356.5 166.58 356.5C166.952 356.5 167.31 356.355 167.577 356.095C167.844 355.836 167.999 355.482 168.01 355.11L171.47 234L165.63 233.83Z" fill="white" stroke="#263238" stroke-linecap="round" stroke-linejoin="round"/>
<path d="M157.47 262.17L157 387.5C156.999 387.69 157.035 387.878 157.107 388.053C157.179 388.228 157.285 388.388 157.419 388.522C157.553 388.656 157.712 388.762 157.887 388.833C158.063 388.905 158.251 388.942 158.44 388.94C158.812 388.941 159.169 388.797 159.438 388.54C159.706 388.283 159.865 387.932 159.88 387.56L163.33 262.33L157.47 262.17Z" fill="white" stroke="#263238" stroke-linecap="round" stroke-linejoin="round"/>
<path d="M333.23 233.83L333.72 355.06C333.721 355.249 333.685 355.436 333.614 355.61C333.543 355.785 333.438 355.944 333.305 356.078C333.172 356.212 333.014 356.318 332.839 356.39C332.665 356.463 332.479 356.5 332.29 356.5C331.917 356.5 331.558 356.355 331.289 356.096C331.02 355.837 330.863 355.483 330.85 355.11L327.4 234L333.23 233.83Z" fill="white" stroke="#263238" stroke-linecap="round" stroke-linejoin="round"/>
<path d="M341.4 262.17L341.89 387.5C341.891 387.69 341.855 387.878 341.783 388.053C341.711 388.228 341.605 388.388 341.471 388.522C341.337 388.656 341.178 388.762 341.003 388.833C340.827 388.905 340.64 388.942 340.45 388.94C340.079 388.941 339.723 388.797 339.456 388.539C339.189 388.282 339.033 387.931 339.02 387.56L335.56 262.33L341.4 262.17Z" fill="white" stroke="#263238" stroke-linecap="round" stroke-linejoin="round"/>
<path d="M214.29 267.38L214 378.62C213.968 378.898 214.046 379.177 214.215 379.399C214.385 379.621 214.634 379.768 214.91 379.81C215.18 379.773 215.425 379.634 215.596 379.422C215.767 379.211 215.851 378.942 215.83 378.67L218 267.51L214.29 267.38Z" fill="white" stroke="#263238" stroke-linecap="round" stroke-linejoin="round"/>
<path d="M284.7 263.8L284.97 360.88C284.993 361.115 284.925 361.35 284.78 361.536C284.634 361.722 284.423 361.846 284.19 361.88C283.957 361.846 283.747 361.722 283.603 361.535C283.46 361.349 283.394 361.114 283.42 360.88L281.57 263.88L284.7 263.8Z" fill="white" stroke="#263238" stroke-linecap="round" stroke-linejoin="round"/>
<path d="M213.2 263.8L213.47 360.88C213.493 361.115 213.425 361.35 213.28 361.536C213.134 361.722 212.923 361.846 212.69 361.88C212.457 361.846 212.247 361.722 212.103 361.535C211.96 361.349 211.894 361.114 211.92 360.88L210.07 263.88L213.2 263.8Z" fill="white" stroke="#263238" stroke-linecap="round" stroke-linejoin="round"/>
<path d="M282.69 267.38L283 378.62C283.032 378.898 282.955 379.177 282.785 379.399C282.615 379.621 282.366 379.768 282.09 379.81C281.821 379.771 281.578 379.631 281.407 379.42C281.237 379.209 281.152 378.941 281.17 378.67L279 267.51L282.69 267.38Z" fill="white" stroke="#263238" stroke-linecap="round" stroke-linejoin="round"/>
<path d="M248 275.17C272.577 275.17 292.5 270.617 292.5 265C292.5 259.383 272.577 254.83 248 254.83C223.423 254.83 203.5 259.383 203.5 265C203.5 270.617 223.423 275.17 248 275.17Z" fill="white" stroke="#263238" stroke-linecap="round" stroke-linejoin="round"/>
<path d="M226.33 351.33C226.33 351.33 224 354.67 225.67 356.33C227.34 357.99 229 357.33 228.83 359C228.66 360.67 226 366.33 223.67 372.33C221.34 378.33 226.17 384.33 230.67 382.67C235.17 381.01 234.67 364.33 235.33 361.33C235.99 358.33 236.5 357.83 236.33 355C236.16 352.17 236 349.17 233.83 348.83C231.66 348.49 227.33 350.17 226.33 351.33Z" fill="white" stroke="#263238" stroke-linecap="round" stroke-linejoin="round"/>
<path d="M233.48 378.07C230.48 376.93 225.88 377.16 223.29 377.42C224.16 381.19 227.49 383.84 230.67 382.67C232 382.18 232.87 380.4 233.48 378.07Z" fill="#2FC2B1" stroke="#263238" stroke-linecap="round" stroke-linejoin="round"/>
<path d="M221.17 344C221.17 344 226 352.17 227.33 354.33C228.66 356.49 233.17 355.83 233.67 352.83C234.17 349.83 231.83 341.5 231.83 341.5L221.83 344H221.17Z" fill="white" stroke="#263238" stroke-linecap="round" stroke-linejoin="round"/>
<path d="M209.67 331C209.67 331 208.33 333.17 209 334.67C209.67 336.17 211.5 340.5 212.67 342.67C213.84 344.84 219.17 346.17 225.33 345.17C231.49 344.17 235 341.33 235.17 338.83C235.34 336.33 234.17 333 233.33 329C232.49 325 230.33 325.17 227.33 325.17C224.33 325.17 212.17 328.67 209.67 331Z" fill="#2FC2B1" stroke="#263238" stroke-linecap="round" stroke-linejoin="round"/>
<path d="M227.67 282C227.76 277.9 230.13 275.88 230.31 273.07C230.592 269.355 230.285 265.619 229.4 262L224.84 255.77C211.72 255.94 202.32 256.16 202.17 256.21C201.67 256.37 201.33 259.21 201 261.54C201 261.54 195.43 262.25 196.43 277.75C196.57 279.91 202.19 304.9 202.6 307.75C205.1 325.16 210.67 333.88 210.67 333.88C210.67 333.88 211.17 336.05 217.67 335.55C224.17 335.05 230.67 330.72 230.67 330.72C230.67 330.72 227.33 296.83 227.67 282Z" fill="#263238" stroke="#263238" stroke-linecap="round" stroke-linejoin="round"/>
<path d="M200.1 259C200.1 259 193.21 260 188.99 264.82C184.77 269.64 188.35 272.82 196.55 271.96C204.75 271.1 214.21 262.71 214.61 262.26C215.01 261.81 206.06 256.11 200.1 259Z" fill="white" stroke="#263238" stroke-linecap="round" stroke-linejoin="round"/>
<path d="M212.33 262C216.72 262.226 221.075 262.896 225.33 264C231 265.67 241 269 243.33 269C245.66 269 245 260.33 245 258.67C245 257.01 215 256 211.33 256C207.66 256 212.33 262 212.33 262Z" fill="white" stroke="#263238" stroke-linecap="round" stroke-linejoin="round"/>
<path d="M245 258.67C245 258.67 242.33 260 241.33 265C240.33 270 239 272.67 241 274C243 275.33 251.67 276.33 253 275C254.33 273.67 258 267 258.67 262.67C259.34 258.34 245 258.67 245 258.67Z" fill="#2FC2B1" stroke="#263238" stroke-linecap="round" stroke-linejoin="round"/>
<path d="M256.33 260.33C254.78 262.109 253.542 264.138 252.67 266.33C251.963 268.625 251.405 270.963 251 273.33C254.19 274.205 257.309 275.321 260.33 276.67C265.67 279 274.67 280.67 283.33 282.67C291.99 284.67 294.33 286.67 297.33 286.67C300.33 286.67 304 284.33 308.67 278.67C313.34 273.01 309.33 261 304.67 257.33C300.01 253.66 275 250.67 271.67 251.67C268.34 252.67 256.33 260.33 256.33 260.33Z" fill="#263238" stroke="#263238" stroke-linecap="round" stroke-linejoin="round"/>
<path d="M193.79 272.05C193.131 269.059 191.797 266.257 189.89 263.86C189.58 264.15 189.28 264.45 188.99 264.78C185.28 269 187.6 272 193.79 272.05Z" fill="#2FC2B1" stroke="#263238" stroke-linecap="round" stroke-linejoin="round"/>
<path d="M227.16 274.69C227.16 274.69 223.72 311.5 216.7 317.23" stroke="white" stroke-width="0.5" stroke-linecap="round" stroke-linejoin="round"/>
<path d="M224.73 309.63C224.73 309.63 222 321.63 214.84 326.4" stroke="white" stroke-width="0.5" stroke-linecap="round" stroke-linejoin="round"/>
<path d="M269 268C269 268 258.33 268.67 265.33 273.33C272.33 277.99 285 281 285 281" stroke="white" stroke-width="0.5" stroke-linecap="round" stroke-linejoin="round"/>
<path d="M346.46 255.39L342.86 252.15L334.54 234.15C334.145 233.331 333.526 232.642 332.754 232.162C331.982 231.682 331.089 231.432 330.18 231.44H168.58C167.669 231.43 166.774 231.679 166 232.159C165.226 232.639 164.605 233.33 164.21 234.15L153.84 256.57L152.13 255.94V261.07L152.21 261.01C152.312 261.695 152.659 262.319 153.187 262.766C153.715 263.213 154.388 263.453 155.08 263.44H343.67C344.399 263.457 345.105 263.19 345.641 262.696C346.176 262.201 346.499 261.518 346.54 260.79L346.46 255.39Z" fill="#263238" stroke="#263238" stroke-linecap="round" stroke-linejoin="round"/>
<path d="M343.67 258.75H155.08C154.613 258.769 154.149 258.669 153.731 258.459C153.314 258.249 152.956 257.937 152.692 257.551C152.428 257.165 152.267 256.719 152.223 256.253C152.179 255.788 152.253 255.319 152.44 254.89L164.21 229.46C164.604 228.639 165.224 227.946 165.999 227.466C166.773 226.986 167.669 226.738 168.58 226.75H330.18C331.09 226.739 331.983 226.989 332.756 227.469C333.528 227.949 334.147 228.64 334.54 229.46L346.31 254.89C346.497 255.319 346.572 255.788 346.527 256.253C346.483 256.719 346.322 257.165 346.058 257.551C345.794 257.937 345.436 258.249 345.019 258.459C344.601 258.669 344.137 258.769 343.67 258.75Z" fill="white" stroke="#263238" stroke-linecap="round" stroke-linejoin="round"/>
<g style="mix-blend-mode:multiply" opacity="0.5">
<path d="M164.63 241.67C164.63 241.67 160.36 244.6 163.03 245.67C165.7 246.74 196.39 245.94 200.13 244.87C203.87 243.8 208.13 233.93 208.13 232.33C208.13 230.73 202.75 229.58 200.77 229.49C198.79 229.4 172.63 230.99 172.63 230.99L164.63 241.67Z" fill="#2FC2B1"/>
</g>
<g style="mix-blend-mode:multiply" opacity="0.5">
<path d="M317.29 246.74C323.332 246.74 328.23 244.708 328.23 242.2C328.23 239.693 323.332 237.66 317.29 237.66C311.248 237.66 306.35 239.693 306.35 242.2C306.35 244.708 311.248 246.74 317.29 246.74Z" fill="#2FC2B1"/>
</g>
<g style="mix-blend-mode:multiply" opacity="0.5">
<path d="M247.64 252.35C269.306 252.35 286.87 249.064 286.87 245.01C286.87 240.957 269.306 237.67 247.64 237.67C225.974 237.67 208.41 240.957 208.41 245.01C208.41 249.064 225.974 252.35 247.64 252.35Z" fill="#2FC2B1"/>
</g>
<path d="M309.29 224.34C309.29 224.34 308.57 221.47 306.18 222.43C303.79 223.39 304.03 229.73 304.5 233.32C304.97 236.91 308.21 235.23 308.21 235.23V233.08C308.21 233.08 307.02 234.03 306.42 232.72C305.82 231.41 305.94 224.82 306.54 224.94C307.14 225.06 308.33 227.09 308.33 227.09C308.33 227.09 308.69 226.86 309.29 224.34Z" fill="#2FC2B1" stroke="#263238" stroke-linecap="round" stroke-linejoin="round"/>
<path d="M307.57 224.82V240.54C307.57 242.39 311.82 243.89 317.07 243.89C322.32 243.89 326.56 242.39 326.56 240.54V224.82H307.57Z" fill="#2FC2B1" stroke="#263238" stroke-linecap="round" stroke-linejoin="round"/>
<path d="M326.56 224.82C326.56 226.42 322.31 227.71 317.07 227.71C311.83 227.71 307.57 226.42 307.57 224.82C307.57 223.22 311.82 221.93 317.07 221.93C322.32 221.93 326.56 223.23 326.56 224.82Z" fill="white" stroke="#263238" stroke-linecap="round" stroke-linejoin="round"/>
<path d="M325.32 224.82C325.32 226.21 321.62 227.33 317.07 227.33C312.52 227.33 308.81 226.21 308.81 224.82C308.81 223.43 312.51 222.31 317.07 222.31C321.63 222.31 325.32 223.43 325.32 224.82Z" fill="white" stroke="#263238" stroke-linecap="round" stroke-linejoin="round"/>
<path d="M310.7 226.42C314.856 227.633 319.273 227.633 323.43 226.42C319.273 225.207 314.856 225.207 310.7 226.42Z" fill="#263238" stroke="#263238" stroke-linecap="round" stroke-linejoin="round"/>
<path d="M163.45 232L163.57 237.38L199.82 237.74V231.52L163.45 232Z" fill="white" stroke="#263238" stroke-linecap="round" stroke-linejoin="round"/>
<path d="M199.82 237.74L205.09 226.38V223.03L199.58 232.6L199.82 237.74Z" fill="white" stroke="#263238" stroke-linecap="round" stroke-linejoin="round"/>
<path d="M163.45 236.9L163.57 242.29L199.82 242.65V236.43L163.45 236.9Z" fill="white" stroke="#263238" stroke-linecap="round" stroke-linejoin="round"/>
<path d="M199.82 242.65L205.09 231.28V227.93L199.58 237.5L199.82 242.65Z" fill="white" stroke="#263238" stroke-linecap="round" stroke-linejoin="round"/>
<path d="M177.45 218.36C177.45 218.36 178.29 216.69 177.09 215.97C175.89 215.25 174.58 216.97 173.86 217.52C173.14 218.07 158.07 228.05 157.59 229.61C157.11 231.17 157.59 234.61 160.82 234.99C164.05 235.37 166.92 233.2 168.36 232.84C169.8 232.48 170.36 232.36 170.36 232.36L180.29 218.96L177.45 218.36Z" fill="white" stroke="#263238" stroke-linecap="round" stroke-linejoin="round"/>
<path d="M160.82 235C164.05 235.36 166.92 233.211 168.36 232.851C169.8 232.491 170.36 232.37 170.36 232.37L170.72 231.88L161.39 229.981C160.883 229.503 160.23 229.208 159.537 229.143C158.843 229.077 158.147 229.246 157.56 229.62C157.11 231.16 157.59 234.63 160.82 235Z" fill="white" stroke="#263238" stroke-linecap="round" stroke-linejoin="round"/>
<path d="M161.42 230H189.42C198.16 230 200.79 229.52 200.79 229.52L206.17 218.39C206.17 218.39 189.17 219.47 183.92 219.11C181.75 219.048 179.59 218.807 177.46 218.39L161.42 230Z" fill="white" stroke="#263238" stroke-linecap="round" stroke-linejoin="round"/>
<path d="M161.42 230L161.9 232.15C161.9 232.15 184.63 232.27 190.61 232.27C196.59 232.27 201.14 232.51 201.14 232.51L200.78 229.51L161.42 230Z" fill="white" stroke="#263238" stroke-linecap="round" stroke-linejoin="round"/>
<path d="M201.14 232.48L206.16 220.99V218.36L200.78 229.49L201.14 232.48Z" fill="white" stroke="#263238" stroke-linecap="round" stroke-linejoin="round"/>
<path d="M281.9 245.92H213.35C213.198 245.922 213.047 245.893 212.907 245.836C212.766 245.778 212.638 245.694 212.53 245.587C212.422 245.48 212.337 245.353 212.278 245.213C212.22 245.072 212.19 244.922 212.19 244.77C212.19 244.618 212.22 244.468 212.278 244.328C212.337 244.188 212.422 244.06 212.53 243.953C212.638 243.847 212.766 243.762 212.907 243.705C213.047 243.648 213.198 243.619 213.35 243.62H281.9C282.051 243.619 282.201 243.648 282.342 243.705C282.482 243.762 282.609 243.847 282.716 243.954C282.823 244.061 282.908 244.188 282.965 244.329C283.022 244.469 283.051 244.619 283.05 244.77C283.051 244.922 283.022 245.072 282.965 245.212C282.908 245.352 282.823 245.479 282.716 245.586C282.609 245.693 282.482 245.778 282.342 245.835C282.201 245.893 282.051 245.922 281.9 245.92Z" fill="white" stroke="#263238" stroke-linecap="round" stroke-linejoin="round"/>
<path d="M282.48 243.6H212.76C212.505 243.601 212.259 243.504 212.073 243.329C211.888 243.154 211.775 242.915 211.76 242.66L207.97 197.11C207.953 196.969 207.966 196.826 208.009 196.691C208.051 196.555 208.122 196.43 208.217 196.324C208.312 196.218 208.428 196.134 208.558 196.076C208.687 196.018 208.828 195.989 208.97 195.99H286.28C286.422 195.989 286.563 196.018 286.693 196.076C286.823 196.134 286.939 196.218 287.033 196.324C287.128 196.43 287.199 196.555 287.241 196.691C287.284 196.826 287.297 196.969 287.28 197.11L283.49 242.66C283.475 242.917 283.361 243.157 283.173 243.332C282.985 243.507 282.737 243.603 282.48 243.6Z" fill="white" stroke="#263238" stroke-linecap="round" stroke-linejoin="round"/>
<path d="M254.2 220.58C254.2 223.3 251.25 225.5 247.62 225.5C243.99 225.5 241.03 223.3 241.03 220.58C241.03 217.86 243.98 215.67 247.62 215.67C251.26 215.67 254.2 217.87 254.2 220.58Z" fill="white" stroke="#263238" stroke-linecap="round" stroke-linejoin="round"/>
<path d="M322.33 185C323.399 184.166 324.151 182.991 324.46 181.67C324.685 180.68 324.661 179.649 324.39 178.67" stroke="#263238" stroke-linecap="round" stroke-linejoin="round"/>
<path d="M314.35 220.66C314.35 220.66 321 216.66 318.83 212.09C316.66 207.52 309.32 204.49 309.32 197.37C309.32 191.23 315.85 188.96 320.11 186.5" stroke="#263238" stroke-linecap="round" stroke-linejoin="round"/>
<path d="M320.49 220.53C320.49 220.53 324.2 218.06 324.2 214.14C324.2 211.51 321.39 209.79 317.68 205.56" stroke="#263238" stroke-linecap="round" stroke-linejoin="round"/>
<path d="M315.63 203C315.63 203 313.2 201.09 314.99 197.5" stroke="#263238" stroke-linecap="round" stroke-linejoin="round"/>
<path d="M259.33 98.2502C260.52 98.0002 263.07 97.0202 264.79 93.0302C264.816 92.9699 264.83 92.9048 264.832 92.8389C264.833 92.773 264.821 92.7075 264.797 92.6461C264.773 92.5848 264.737 92.5289 264.691 92.4815C264.645 92.4341 264.59 92.3963 264.53 92.3702C264.407 92.3194 264.27 92.3182 264.147 92.3667C264.024 92.4152 263.924 92.5097 263.87 92.6302C262.29 96.2902 260.03 97.1002 259.09 97.2802C260.772 95.2445 261.701 92.691 261.72 90.0502C261.72 83.1102 255.29 77.4902 247.36 77.4902C239.43 77.4902 233 83.1102 233 90.0502C233.005 92.5845 233.849 95.0458 235.4 97.0502C233.89 96.9702 231.34 97.6102 228.11 101.38C228.017 101.475 227.966 101.603 227.966 101.735C227.966 101.868 228.017 101.995 228.11 102.09C228.202 102.167 228.319 102.21 228.44 102.21C228.512 102.21 228.584 102.194 228.65 102.163C228.716 102.132 228.774 102.087 228.82 102.03C232.95 97.2202 235.68 98.0302 236.23 98.2502C235.296 98.7638 234.421 99.3774 233.62 100.08C229.01 104.23 226.2 112.08 226.56 118.62C226.964 122.958 228.537 127.105 231.11 130.62C234.458 128.224 237.234 125.116 239.24 121.52C240.734 118.879 242.07 116.151 243.24 113.35C243.24 116.28 243.62 119.82 245.16 122.35C246.271 124.349 247.898 126.012 249.872 127.166C251.846 128.32 254.093 128.922 256.38 128.91C257.169 128.922 257.957 128.844 258.73 128.68C258.798 128.663 258.861 128.632 258.916 128.589C258.971 128.546 259.017 128.492 259.05 128.43C262.91 129.25 266.75 129.18 267.34 128.36C268.29 127.05 269.64 122.96 270.09 117.96C270.91 109.48 265.57 102.12 259.33 98.2502ZM246.09 121.74C244.15 118.57 244.21 113.4 244.44 110.43L244.57 110.09C244.662 113.145 245.441 116.14 246.848 118.852C248.255 121.565 250.255 123.926 252.7 125.76C254.05 126.694 255.548 127.393 257.13 127.83C254.68 128 249.64 127.53 246.09 121.74Z" fill="#263238"/>
<path d="M246.26 106C246.26 106 245.44 112.06 253.14 118C260.84 123.94 268.14 121.6 268.14 121.6" stroke="white" stroke-width="0.5" stroke-linecap="round" stroke-linejoin="round"/>
<path d="M247.39 104C247.39 104 255.5 115.81 266.7 112.73" stroke="white" stroke-width="0.5" stroke-linecap="round" stroke-linejoin="round"/>
<path d="M243.38 100.07C242.101 99.4207 240.668 99.1351 239.238 99.2445C237.808 99.3538 236.435 99.8539 235.27 100.69C230.96 103.56 228.8 110.34 228.8 110.34" stroke="white" stroke-width="0.5" stroke-linecap="round" stroke-linejoin="round"/>
<path d="M243.59 103.36C243.59 103.36 240.1 102.43 237.94 104.59C236.887 105.544 235.987 106.654 235.27 107.88" stroke="white" stroke-width="0.5" stroke-linecap="round" stroke-linejoin="round"/>
</svg>
